<svg width="1em" height="1em" viewBox="0 0 53.294 16.264" xmlns="http://www.w3.org/2000/svg"><path d="M21.58 13.568c-.528-.01-.966-.068-1.313-.176-.347-.107-.624-.262-.83-.462a1.63 1.63 0 01-.432-.749 3.785 3.785 0 01-.125-1.02V2.326l1.776-.294v8.792c0 .215.017.396.051.543a.872.872 0 00.184.374.825.825 0 00.36.235c.151.054.344.095.58.125zM24.664 13.42h-1.776V5.744h1.776zm.19-9.921c0 .332-.107.596-.322.792s-.47.293-.763.293c-.304 0-.563-.097-.778-.293-.216-.196-.323-.46-.323-.792 0-.343.107-.612.323-.808.215-.195.474-.293.778-.293.293 0 .547.098.763.293.215.196.322.465.322.808M25.821 5.994a11.935 11.935 0 013.156-.41c.626 0 1.15.085 1.57.256.42.171.756.411 1.005.72.25.308.426.68.529 1.115s.154.912.154 1.43v4.316h-1.776V9.384c0-.41-.027-.76-.08-1.049-.055-.288-.143-.523-.265-.704s-.289-.313-.5-.397a2.098 2.098 0 00-.77-.124c-.225 0-.46.014-.704.044s-.426.053-.543.073v6.194h-1.776zM35.082 8.739c.225-.235.464-.487.719-.756a55.887 55.887 0 001.445-1.585c.22-.25.409-.467.565-.653h2.1c-.489.548-1.004 1.115-1.546 1.702a78.77 78.77 0 01-1.632 1.717c.292.245.6.541.922.888.323.348.635.717.937 1.108.303.392.586.783.85 1.174.263.392.483.754.66 1.086h-2.056c-.176-.303-.379-.62-.609-.953-.23-.333-.477-.656-.741-.97a15.959 15.959 0 00-.807-.887 6.942 6.942 0 00-.807-.712v3.522h-1.776V2.325l1.776-.294z" fill="#fff"></path><path d="M43.442 13.568c-.528-.01-.966-.068-1.313-.176-.347-.107-.624-.262-.83-.462a1.63 1.63 0 01-.432-.749 3.785 3.785 0 01-.125-1.02V2.326l1.776-.294v8.792c0 .215.017.396.05.543a.872.872 0 00.184.374.825.825 0 00.36.235c.152.054.345.095.58.125zM48.755 8.827c0-.244-.034-.477-.103-.697s-.168-.411-.3-.573a1.429 1.429 0 00-.485-.381 1.547 1.547 0 00-.682-.14c-.274 0-.514.052-.72.154-.205.103-.378.238-.52.404a1.839 1.839 0 00-.33.573 3.092 3.092 0 00-.162.66zm-5.151.793c0-.676.1-1.268.3-1.776.2-.509.468-.932.8-1.27s.715-.592 1.145-.763c.43-.171.87-.257 1.321-.257 1.057 0 1.88.328 2.473.983.592.656.888 1.635.888 2.936a8.255 8.255 0 01-.03.66h-5.063c.05.617.267 1.094.653 1.431.387.338.947.507 1.68.507.431 0 .825-.04 1.183-.118.357-.078.638-.161.843-.25l.235 1.454c-.098.049-.232.1-.404.154a5.664 5.664 0 01-.587.147c-.22.044-.457.08-.712.11s-.513.044-.777.044c-.675 0-1.263-.1-1.761-.301-.5-.2-.91-.48-1.233-.837a3.43 3.43 0 01-.72-1.262 5.161 5.161 0 01-.234-1.592M53.102 13.42h-1.776V5.744h1.776zm.19-9.921c0 .332-.108.596-.323.792s-.47.293-.763.293c-.303 0-.563-.097-.778-.293-.215-.196-.323-.46-.323-.792 0-.343.108-.612.323-.808.215-.195.475-.293.778-.293.294 0 .548.098.763.293.215.196.323.465.323.808" fill="#fff"></path><path d="M6.087 3.292c-.476 0-.718.242-.718 1.567v5.13a9.56 9.56 0 00.367-.302C7.45 8.203 7.914 5.813 7.373 4.361c-.182-.488-.553-1.07-1.286-1.07m-.718 8.015v3.173l2.086-1.976a.538.538 0 01.369-.147h3.46c.887 0 1.608-.72 1.608-1.606V2.674c0-.886-.721-1.607-1.607-1.607h-8.61a1.61 1.61 0 00-1.608 1.607V9.84c0 .698.218 1.151.648 1.348.514.235 1.457.135 2.583-.484V4.86c0-.722 0-2.638 1.789-2.638 1.036 0 1.871.643 2.29 1.766.66 1.77.204 4.653-1.94 6.51a9.89 9.89 0 01-1.068.809m-.535 4.954a.536.536 0 01-.536-.536v-3.827c-1.147.518-2.229.63-3.028.264-.476-.218-1.274-.808-1.274-2.322V2.674A2.681 2.681 0 012.674-.004h8.61a2.681 2.681 0 012.68 2.678v8.076a2.681 2.681 0 01-2.68 2.678H8.038l-2.835 2.685a.536.536 0 01-.368.147" fill="#fff"></path></svg>