<svg fill="none" xmlns="http://www.w3.org/2000/svg" viewBox="0 0 22 16"><path d="M0 2.5C0 1.837.277 1.201.769.732A2.693 2.693 0 012.625 0h15.75c.696 0 1.364.263 1.856.732.492.47.769 1.105.769 1.768v10c0 .663-.277 1.299-.769 1.768a2.693 2.693 0 01-1.856.732H2.625a2.693 2.693 0 01-1.856-.732A2.441 2.441 0 010 12.5v-10zm2.625-1.25c-.348 0-.682.132-.928.366a1.22 1.22 0 00-.385.884v.271l9.188 5.25 9.188-5.25V2.5c0-.332-.139-.65-.385-.884a1.347 1.347 0 00-.928-.366H2.625zm17.063 2.979l-6.245 3.569 6.245 3.595V4.228zm-.045 8.597l-7.475-4.301-1.668.954-1.67-.954-7.473 4.3c.075.266.24.5.47.667.229.167.51.258.798.258h15.75c.289 0 .57-.09.798-.257a1.25 1.25 0 00.47-.667zm-18.33-1.434l6.244-3.594-6.245-3.57v7.165z" fill="#fff"></path></svg>