<svg fill="none" xmlns="http://www.w3.org/2000/svg" viewBox="0 0 15 16"><path d="M7.312 16c.526 0 1.03-.21 1.402-.586.372-.375.581-.883.581-1.414H5.33c0 .53.21 1.04.581 1.414.372.375.876.586 1.402.586zm0-14.081l-.79.16a3.962 3.962 0 00-2.28 1.39 4.023 4.023 0 00-.896 2.532c0 .628-.133 2.196-.455 3.741-.158.767-.373 1.566-.657 2.258H12.39c-.285-.692-.498-1.49-.658-2.258-.322-1.545-.455-3.113-.455-3.741 0-.923-.317-1.817-.895-2.531a3.962 3.962 0 00-2.28-1.39l-.79-.162zM13.48 12c.221.447.477.801.774 1H.372c.296-.199.552-.553.773-1 .893-1.8 1.21-5.12 1.21-6 0-2.42 1.705-4.44 3.97-4.9a1.008 1.008 0 01.252-.77.992.992 0 01.735-.33.984.984 0 01.735.33 1.002 1.002 0 01.252.77c1.12.23 2.128.843 2.851 1.736a5.028 5.028 0 011.12 3.165c0 .88.317 4.2 1.21 6z" fill="#fff"></path></svg>