<svg fill="none" xmlns="http://www.w3.org/2000/svg" viewBox="0 0 17 16"><path d="M3.462.5a.501.501 0 01.497-.5h9.943a.496.496 0 01.497.5c0 .538-.012 1.05-.034 1.536a2.973 2.973 0 011.96 1.245 3.009 3.009 0 01.033 3.382 2.992 2.992 0 01-1.937 1.282 2.966 2.966 0 01-1.182-.019c-.786 1.865-1.868 2.777-2.817 3.011v2.173l1.416.356c.193.048.375.135.534.255L14.2 15.1a.5.5 0 01-.298.9H3.959a.495.495 0 01-.472-.342.503.503 0 01.173-.558l1.828-1.379c.159-.12.341-.207.534-.255l1.417-.356v-2.173c-.95-.234-2.032-1.146-2.817-3.012a2.966 2.966 0 01-2.282-.423 2.991 2.991 0 01-1.29-1.94 3.017 3.017 0 01.483-2.283 2.99 2.99 0 011.963-1.244A33.265 33.265 0 013.462.5zm.098 2.54a1.988 1.988 0 00-1.278.83 2.01 2.01 0 00.506 2.783c.434.302.97.417 1.488.322-.331-1.05-.585-2.346-.716-3.935zm10.025 3.935a1.98 1.98 0 001.489-.322 2.01 2.01 0 00.506-2.782c-.3-.437-.76-.736-1.279-.831-.132 1.59-.385 2.885-.716 3.935zM4.46 1c.007.517.026 1.006.056 1.469.129 2.028.454 3.546.865 4.667C6.24 9.48 7.423 10 7.936 10a.496.496 0 01.497.5v2.61a1.004 1.004 0 01-.753.97l-1.417.356a.496.496 0 00-.178.085L5.45 15h6.96l-.634-.479a.497.497 0 00-.18-.085l-1.416-.356a.994.994 0 01-.753-.97V10.5a.502.502 0 01.498-.5c.513 0 1.696-.52 2.555-2.864.41-1.12.736-2.64.865-4.667.03-.463.049-.952.056-1.469H4.46z" fill="#fff"></path></svg>